<?xml version="1.0" encoding="utf-8"?>
<!-- Generator: Adobe Illustrator 22.1.0, SVG Export Plug-In . SVG Version: 6.00 Build 0)  -->
<svg version="1.1" id="Layer_1" xmlns="http://www.w3.org/2000/svg" xmlns:xlink="http://www.w3.org/1999/xlink" x="0px" y="0px"
	 viewBox="0 0 62.4 50" style="enable-background:new 0 0 62.4 50;" xml:space="preserve">
<style type="text/css">
	.st0{fill:#EC1C24;}
</style>
<polygon class="st0" points="37.9,26.8 37.9,23.2 18.5,23.2 18.5,14.3 34.3,14.3 34.3,10.7 14.9,10.7 14.9,23.2 14.9,26.8 
	14.9,39.3 34.3,39.3 34.3,35.7 18.5,35.7 18.5,26.8 "/>
<path class="st0" d="M48.6,35.7c-5.9,0-10.7-4.8-10.7-10.7s4.8-10.7,10.7-10.7c4.7,0,8.6,3,10.1,7.1h3.7
	c-1.6-6.1-7.1-10.7-13.8-10.7c-7.9,0-14.3,6.4-14.3,14.3s6.4,14.3,14.3,14.3c6.6,0,12.2-4.5,13.8-10.7h-3.7
	C57.2,32.7,53.2,35.7,48.6,35.7z"/>
<polygon class="st0" points="46.4,46.4 3.6,46.4 3.6,3.6 46.4,3.6 46.4,9 50,9 50,0 0,0 0,50 50,50 50,37.5 46.4,37.5 "/>
</svg>
