<?xml version="1.0" encoding="utf-8"?>
<!-- Generator: Adobe Illustrator 22.1.0, SVG Export Plug-In . SVG Version: 6.00 Build 0)  -->
<svg version="1.1" id="Layer_1" xmlns="http://www.w3.org/2000/svg" xmlns:xlink="http://www.w3.org/1999/xlink" x="0px" y="0px"
	 viewBox="0 0 320 50" style="enable-background:new 0 0 320 50;" xml:space="preserve">
<style type="text/css">
	.st0{fill:#EC1C24;}
	.st1{fill:#58595B;}
</style>
<polygon class="st0" points="37.9,26.8 37.9,23.2 18.5,23.2 18.5,14.3 34.3,14.3 34.3,10.7 14.9,10.7 14.9,23.2 14.9,26.8 
	14.9,39.3 34.3,39.3 34.3,35.7 18.5,35.7 18.5,26.8 "/>
<path class="st0" d="M48.6,35.7c-5.9,0-10.7-4.8-10.7-10.7s4.8-10.7,10.7-10.7c4.7,0,8.6,3,10.1,7.1h3.7
	c-1.6-6.1-7.1-10.7-13.8-10.7c-7.9,0-14.3,6.4-14.3,14.3s6.4,14.3,14.3,14.3c6.6,0,12.2-4.5,13.8-10.7h-3.7
	C57.2,32.7,53.2,35.7,48.6,35.7z"/>
<polygon class="st0" points="46.4,46.4 3.6,46.4 3.6,3.6 46.4,3.6 46.4,9 50,9 50,0 0,0 0,50 50,50 50,37.5 46.4,37.5 "/>
<g>
	<path class="st1" d="M122.1,0c4.1,0,5.9,2.9,6,5.9c0.1,3-1.8,6.1-6,6.1c-1.4,0-3.1,0-4.5,0V0H122.1z M119.5,10.1h2.6
		c2.9,0,4.1-2.1,4.1-4.2c-0.1-2-1.3-4-4.1-4h-2.6V10.1z"/>
	<path class="st1" d="M140.1,11.9h-2.2l-3.6-4.1h-2.5v4.1h-1.9V0c1.9,0,3.7,0,5.5,0c2.8,0,4.2,1.9,4.2,3.9c0,1.7-0.9,3.4-3.2,3.7
		l3.6,4L140.1,11.9z M131.6,1.8v4.3h3.6c1.6,0,2.3-1,2.3-2.1s-0.7-2.2-2.3-2.2C135.2,1.8,131.6,1.8,131.6,1.8z"/>
	<rect x="141.1" y="9.9" class="st1" width="2.2" height="2.2"/>
</g>
<path class="st1" d="M97,47.5H74.5c0-10.1,0-20.3,0-30.4h22.4v4.7H79.3V30h16.8v4.5H79.3v8.2H97V47.5z"/>
<path class="st1" d="M128.2,47.5h-5.7L113.2,37h-6.4v10.5h-4.9V17.1c4.7,0,9.4,0,14.2,0c7,0,10.7,4.8,10.7,10c0,4.3-2.3,8.6-8.3,9.5
	l9.1,10.1L128.2,47.5z M106.8,21.5v11h9.3c4,0,5.8-2.6,5.8-5.4c0-2.7-1.8-5.6-5.8-5.6H106.8z"/>
<path class="st1" d="M154.5,47.5H132c0-10.1,0-20.3,0-30.4h22.4v4.7h-17.5V30h16.8v4.5h-16.8v8.2h17.6V47.5z"/>
<path class="st1" d="M180.4,38.8V17.1h4.9v30.4h-3.7L164.3,26v21.5h-4.9V17.1h3.7L180.4,38.8z"/>
<path class="st1" d="M252.9,47.5h-22.5c0-10.1,0-20.3,0-30.4h22.4v4.7h-17.5V30h16.8v4.5h-16.8v8.2h17.6V47.5z"/>
<path class="st1" d="M266,21.5h-10v-4.4c8.7,0,16.1,0,24.9,0v4.4h-10v26.1H266V21.5z"/>
<rect x="285.3" y="17.1" class="st1" width="4.8" height="30.4"/>
<rect x="285.3" y="8.4" class="st1" width="4.8" height="5.5"/>
<path class="st1" d="M315.1,38.8V17.1h4.9v30.4h-3.7L299,26.1v21.5h-4.9V17.1h3.7L315.1,38.8z"/>
<rect x="210.6" y="45.1" class="st1" width="4.9" height="4.9"/>
<path class="st1" d="M213,43.2c-6,0-10.9-4.9-10.9-10.9S207,21.5,213,21.5c3.7,0,6.9,1.8,8.9,4.6h5c-2.4-5.3-7.7-9-13.9-9
	c-8.4,0-15.2,6.8-15.2,15.2s6.8,15.2,15.2,15.2c6.2,0,11.5-3.7,13.9-9h-5C220,41.4,216.7,43.2,213,43.2z"/>
<g>
	<rect x="104.5" y="10.3" class="st1" width="1.8" height="1.8"/>
	<path class="st1" d="M105.3,9.7c-2.2,0-3.9-1.8-3.9-3.9s1.8-3.9,3.9-3.9c1.3,0,2.5,0.7,3.2,1.7h1.8c-0.9-1.9-2.8-3.3-5-3.3
		c-3,0-5.5,2.5-5.5,5.5s2.5,5.5,5.5,5.5c2.2,0,4.2-1.3,5-3.3h-1.8C107.9,9,106.7,9.7,105.3,9.7z"/>
</g>
<path class="st1" d="M78.9,0.2c4,0,5.8,2.8,5.8,5.7c0.1,2.9-1.8,5.9-5.8,5.9c-1.4,0-3,0-4.4,0V0.2H78.9z M76.3,10.1h2.6
	c2.8,0,4-2.1,4-4.1c-0.1-2-1.2-3.9-4-3.9h-2.6V10.1z"/>
<path class="st1" d="M98.2,6.1c0,3.1-1.9,6-6,6c-4,0-6-2.9-6-6c0-3.5,2.5-6.1,6-6.1C96.2,0,98.2,3,98.2,6.1z M92.2,10.4
	c2.9,0,4.1-2,4.1-4.3c0-2.1-1.2-4.4-4.1-4.4c-2.7,0-4.1,1.9-4.1,4.4C88.1,8.2,89.3,10.4,92.2,10.4z"/>
<path class="st1" d="M113.7,11c0,1.4-2.1,1.4-2.1,0C111.6,9.6,113.7,9.6,113.7,11z"/>
</svg>
